<svg xmlns="http://www.w3.org/2000/svg" viewBox="0 0 512 512">
  <defs><clipPath id="sq2"><rect width="512" height="512" rx="112" ry="112"></rect></clipPath></defs>
  <g clip-path="url(#sq2)">
    <rect width="512" height="512" fill="#FF5A1F"></rect>
    <g opacity="0.18">
      <rect x="0" y="0" width="512" height="1" fill="#0A0A0A"></rect><rect x="0" y="3" width="512" height="1" fill="#0A0A0A"></rect><rect x="0" y="6" width="512" height="1" fill="#0A0A0A"></rect><rect x="0" y="9" width="512" height="1" fill="#0A0A0A"></rect><rect x="0" y="12" width="512" height="1" fill="#0A0A0A"></rect><rect x="0" y="15" width="512" height="1" fill="#0A0A0A"></rect><rect x="0" y="18" width="512" height="1" fill="#0A0A0A"></rect><rect x="0" y="21" width="512" height="1" fill="#0A0A0A"></rect><rect x="0" y="24" width="512" height="1" fill="#0A0A0A"></rect><rect x="0" y="27" width="512" height="1" fill="#0A0A0A"></rect><rect x="0" y="30" width="512" height="1" fill="#0A0A0A"></rect><rect x="0" y="33" width="512" height="1" fill="#0A0A0A"></rect><rect x="0" y="36" width="512" height="1" fill="#0A0A0A"></rect><rect x="0" y="39" width="512" height="1" fill="#0A0A0A"></rect><rect x="0" y="42" width="512" height="1" fill="#0A0A0A"></rect><rect x="0" y="45" width="512" height="1" fill="#0A0A0A"></rect><rect x="0" y="48" width="512" height="1" fill="#0A0A0A"></rect><rect x="0" y="51" width="512" height="1" fill="#0A0A0A"></rect><rect x="0" y="54" width="512" height="1" fill="#0A0A0A"></rect><rect x="0" y="57" width="512" height="1" fill="#0A0A0A"></rect><rect x="0" y="60" width="512" height="1" fill="#0A0A0A"></rect><rect x="0" y="63" width="512" height="1" fill="#0A0A0A"></rect><rect x="0" y="66" width="512" height="1" fill="#0A0A0A"></rect><rect x="0" y="69" width="512" height="1" fill="#0A0A0A"></rect><rect x="0" y="72" width="512" height="1" fill="#0A0A0A"></rect><rect x="0" y="75" width="512" height="1" fill="#0A0A0A"></rect><rect x="0" y="78" width="512" height="1" fill="#0A0A0A"></rect><rect x="0" y="81" width="512" height="1" fill="#0A0A0A"></rect><rect x="0" y="84" width="512" height="1" fill="#0A0A0A"></rect><rect x="0" y="87" width="512" height="1" fill="#0A0A0A"></rect><rect x="0" y="90" width="512" height="1" fill="#0A0A0A"></rect><rect x="0" y="93" width="512" height="1" fill="#0A0A0A"></rect><rect x="0" y="96" width="512" height="1" fill="#0A0A0A"></rect><rect x="0" y="99" width="512" height="1" fill="#0A0A0A"></rect><rect x="0" y="102" width="512" height="1" fill="#0A0A0A"></rect><rect x="0" y="105" width="512" height="1" fill="#0A0A0A"></rect><rect x="0" y="108" width="512" height="1" fill="#0A0A0A"></rect><rect x="0" y="111" width="512" height="1" fill="#0A0A0A"></rect><rect x="0" y="114" width="512" height="1" fill="#0A0A0A"></rect><rect x="0" y="117" width="512" height="1" fill="#0A0A0A"></rect><rect x="0" y="120" width="512" height="1" fill="#0A0A0A"></rect><rect x="0" y="123" width="512" height="1" fill="#0A0A0A"></rect><rect x="0" y="126" width="512" height="1" fill="#0A0A0A"></rect><rect x="0" y="129" width="512" height="1" fill="#0A0A0A"></rect><rect x="0" y="132" width="512" height="1" fill="#0A0A0A"></rect><rect x="0" y="135" width="512" height="1" fill="#0A0A0A"></rect><rect x="0" y="138" width="512" height="1" fill="#0A0A0A"></rect><rect x="0" y="141" width="512" height="1" fill="#0A0A0A"></rect><rect x="0" y="144" width="512" height="1" fill="#0A0A0A"></rect><rect x="0" y="147" width="512" height="1" fill="#0A0A0A"></rect><rect x="0" y="150" width="512" height="1" fill="#0A0A0A"></rect><rect x="0" y="153" width="512" height="1" fill="#0A0A0A"></rect><rect x="0" y="156" width="512" height="1" fill="#0A0A0A"></rect><rect x="0" y="159" width="512" height="1" fill="#0A0A0A"></rect><rect x="0" y="162" width="512" height="1" fill="#0A0A0A"></rect><rect x="0" y="165" width="512" height="1" fill="#0A0A0A"></rect><rect x="0" y="168" width="512" height="1" fill="#0A0A0A"></rect><rect x="0" y="171" width="512" height="1" fill="#0A0A0A"></rect><rect x="0" y="174" width="512" height="1" fill="#0A0A0A"></rect><rect x="0" y="177" width="512" height="1" fill="#0A0A0A"></rect><rect x="0" y="180" width="512" height="1" fill="#0A0A0A"></rect><rect x="0" y="183" width="512" height="1" fill="#0A0A0A"></rect><rect x="0" y="186" width="512" height="1" fill="#0A0A0A"></rect><rect x="0" y="189" width="512" height="1" fill="#0A0A0A"></rect><rect x="0" y="192" width="512" height="1" fill="#0A0A0A"></rect><rect x="0" y="195" width="512" height="1" fill="#0A0A0A"></rect><rect x="0" y="198" width="512" height="1" fill="#0A0A0A"></rect><rect x="0" y="201" width="512" height="1" fill="#0A0A0A"></rect><rect x="0" y="204" width="512" height="1" fill="#0A0A0A"></rect><rect x="0" y="207" width="512" height="1" fill="#0A0A0A"></rect><rect x="0" y="210" width="512" height="1" fill="#0A0A0A"></rect><rect x="0" y="213" width="512" height="1" fill="#0A0A0A"></rect><rect x="0" y="216" width="512" height="1" fill="#0A0A0A"></rect><rect x="0" y="219" width="512" height="1" fill="#0A0A0A"></rect><rect x="0" y="222" width="512" height="1" fill="#0A0A0A"></rect><rect x="0" y="225" width="512" height="1" fill="#0A0A0A"></rect><rect x="0" y="228" width="512" height="1" fill="#0A0A0A"></rect><rect x="0" y="231" width="512" height="1" fill="#0A0A0A"></rect><rect x="0" y="234" width="512" height="1" fill="#0A0A0A"></rect><rect x="0" y="237" width="512" height="1" fill="#0A0A0A"></rect><rect x="0" y="240" width="512" height="1" fill="#0A0A0A"></rect><rect x="0" y="243" width="512" height="1" fill="#0A0A0A"></rect><rect x="0" y="246" width="512" height="1" fill="#0A0A0A"></rect><rect x="0" y="249" width="512" height="1" fill="#0A0A0A"></rect><rect x="0" y="252" width="512" height="1" fill="#0A0A0A"></rect><rect x="0" y="255" width="512" height="1" fill="#0A0A0A"></rect><rect x="0" y="258" width="512" height="1" fill="#0A0A0A"></rect><rect x="0" y="261" width="512" height="1" fill="#0A0A0A"></rect><rect x="0" y="264" width="512" height="1" fill="#0A0A0A"></rect><rect x="0" y="267" width="512" height="1" fill="#0A0A0A"></rect><rect x="0" y="270" width="512" height="1" fill="#0A0A0A"></rect><rect x="0" y="273" width="512" height="1" fill="#0A0A0A"></rect><rect x="0" y="276" width="512" height="1" fill="#0A0A0A"></rect><rect x="0" y="279" width="512" height="1" fill="#0A0A0A"></rect><rect x="0" y="282" width="512" height="1" fill="#0A0A0A"></rect><rect x="0" y="285" width="512" height="1" fill="#0A0A0A"></rect><rect x="0" y="288" width="512" height="1" fill="#0A0A0A"></rect><rect x="0" y="291" width="512" height="1" fill="#0A0A0A"></rect><rect x="0" y="294" width="512" height="1" fill="#0A0A0A"></rect><rect x="0" y="297" width="512" height="1" fill="#0A0A0A"></rect><rect x="0" y="300" width="512" height="1" fill="#0A0A0A"></rect><rect x="0" y="303" width="512" height="1" fill="#0A0A0A"></rect><rect x="0" y="306" width="512" height="1" fill="#0A0A0A"></rect><rect x="0" y="309" width="512" height="1" fill="#0A0A0A"></rect><rect x="0" y="312" width="512" height="1" fill="#0A0A0A"></rect><rect x="0" y="315" width="512" height="1" fill="#0A0A0A"></rect><rect x="0" y="318" width="512" height="1" fill="#0A0A0A"></rect><rect x="0" y="321" width="512" height="1" fill="#0A0A0A"></rect><rect x="0" y="324" width="512" height="1" fill="#0A0A0A"></rect><rect x="0" y="327" width="512" height="1" fill="#0A0A0A"></rect><rect x="0" y="330" width="512" height="1" fill="#0A0A0A"></rect><rect x="0" y="333" width="512" height="1" fill="#0A0A0A"></rect><rect x="0" y="336" width="512" height="1" fill="#0A0A0A"></rect><rect x="0" y="339" width="512" height="1" fill="#0A0A0A"></rect><rect x="0" y="342" width="512" height="1" fill="#0A0A0A"></rect><rect x="0" y="345" width="512" height="1" fill="#0A0A0A"></rect><rect x="0" y="348" width="512" height="1" fill="#0A0A0A"></rect><rect x="0" y="351" width="512" height="1" fill="#0A0A0A"></rect><rect x="0" y="354" width="512" height="1" fill="#0A0A0A"></rect><rect x="0" y="357" width="512" height="1" fill="#0A0A0A"></rect><rect x="0" y="360" width="512" height="1" fill="#0A0A0A"></rect><rect x="0" y="363" width="512" height="1" fill="#0A0A0A"></rect><rect x="0" y="366" width="512" height="1" fill="#0A0A0A"></rect><rect x="0" y="369" width="512" height="1" fill="#0A0A0A"></rect><rect x="0" y="372" width="512" height="1" fill="#0A0A0A"></rect><rect x="0" y="375" width="512" height="1" fill="#0A0A0A"></rect><rect x="0" y="378" width="512" height="1" fill="#0A0A0A"></rect><rect x="0" y="381" width="512" height="1" fill="#0A0A0A"></rect><rect x="0" y="384" width="512" height="1" fill="#0A0A0A"></rect><rect x="0" y="387" width="512" height="1" fill="#0A0A0A"></rect><rect x="0" y="390" width="512" height="1" fill="#0A0A0A"></rect><rect x="0" y="393" width="512" height="1" fill="#0A0A0A"></rect><rect x="0" y="396" width="512" height="1" fill="#0A0A0A"></rect><rect x="0" y="399" width="512" height="1" fill="#0A0A0A"></rect><rect x="0" y="402" width="512" height="1" fill="#0A0A0A"></rect><rect x="0" y="405" width="512" height="1" fill="#0A0A0A"></rect><rect x="0" y="408" width="512" height="1" fill="#0A0A0A"></rect><rect x="0" y="411" width="512" height="1" fill="#0A0A0A"></rect><rect x="0" y="414" width="512" height="1" fill="#0A0A0A"></rect><rect x="0" y="417" width="512" height="1" fill="#0A0A0A"></rect><rect x="0" y="420" width="512" height="1" fill="#0A0A0A"></rect><rect x="0" y="423" width="512" height="1" fill="#0A0A0A"></rect><rect x="0" y="426" width="512" height="1" fill="#0A0A0A"></rect><rect x="0" y="429" width="512" height="1" fill="#0A0A0A"></rect><rect x="0" y="432" width="512" height="1" fill="#0A0A0A"></rect><rect x="0" y="435" width="512" height="1" fill="#0A0A0A"></rect><rect x="0" y="438" width="512" height="1" fill="#0A0A0A"></rect><rect x="0" y="441" width="512" height="1" fill="#0A0A0A"></rect><rect x="0" y="444" width="512" height="1" fill="#0A0A0A"></rect><rect x="0" y="447" width="512" height="1" fill="#0A0A0A"></rect><rect x="0" y="450" width="512" height="1" fill="#0A0A0A"></rect><rect x="0" y="453" width="512" height="1" fill="#0A0A0A"></rect><rect x="0" y="456" width="512" height="1" fill="#0A0A0A"></rect><rect x="0" y="459" width="512" height="1" fill="#0A0A0A"></rect><rect x="0" y="462" width="512" height="1" fill="#0A0A0A"></rect><rect x="0" y="465" width="512" height="1" fill="#0A0A0A"></rect><rect x="0" y="468" width="512" height="1" fill="#0A0A0A"></rect><rect x="0" y="471" width="512" height="1" fill="#0A0A0A"></rect><rect x="0" y="474" width="512" height="1" fill="#0A0A0A"></rect><rect x="0" y="477" width="512" height="1" fill="#0A0A0A"></rect><rect x="0" y="480" width="512" height="1" fill="#0A0A0A"></rect><rect x="0" y="483" width="512" height="1" fill="#0A0A0A"></rect><rect x="0" y="486" width="512" height="1" fill="#0A0A0A"></rect><rect x="0" y="489" width="512" height="1" fill="#0A0A0A"></rect><rect x="0" y="492" width="512" height="1" fill="#0A0A0A"></rect><rect x="0" y="495" width="512" height="1" fill="#0A0A0A"></rect><rect x="0" y="498" width="512" height="1" fill="#0A0A0A"></rect><rect x="0" y="501" width="512" height="1" fill="#0A0A0A"></rect><rect x="0" y="504" width="512" height="1" fill="#0A0A0A"></rect><rect x="0" y="507" width="512" height="1" fill="#0A0A0A"></rect>
    </g>
    <g transform="translate(16 16) scale(15)">
      <rect x="8" y="3" width="1" height="1" fill="#0A0A0A"></rect><rect x="9" y="3" width="1" height="1" fill="#0A0A0A"></rect><rect x="10" y="3" width="1" height="1" fill="#0A0A0A"></rect><rect x="11" y="3" width="1" height="1" fill="#0A0A0A"></rect><rect x="12" y="3" width="1" height="1" fill="#0A0A0A"></rect><rect x="13" y="3" width="1" height="1" fill="#0A0A0A"></rect><rect x="14" y="3" width="1" height="1" fill="#0A0A0A"></rect><rect x="15" y="3" width="1" height="1" fill="#0A0A0A"></rect><rect x="16" y="3" width="1" height="1" fill="#0A0A0A"></rect><rect x="17" y="3" width="1" height="1" fill="#0A0A0A"></rect><rect x="18" y="3" width="1" height="1" fill="#0A0A0A"></rect><rect x="19" y="3" width="1" height="1" fill="#0A0A0A"></rect><rect x="20" y="3" width="1" height="1" fill="#0A0A0A"></rect><rect x="21" y="3" width="1" height="1" fill="#0A0A0A"></rect><rect x="22" y="3" width="1" height="1" fill="#0A0A0A"></rect><rect x="23" y="3" width="1" height="1" fill="#0A0A0A"></rect><rect x="7" y="4" width="1" height="1" fill="#0A0A0A"></rect><rect x="8" y="4" width="1" height="1" fill="#FF5A1F"></rect><rect x="9" y="4" width="1" height="1" fill="#FF5A1F"></rect><rect x="10" y="4" width="1" height="1" fill="#FF5A1F"></rect><rect x="11" y="4" width="1" height="1" fill="#FF5A1F"></rect><rect x="12" y="4" width="1" height="1" fill="#FF5A1F"></rect><rect x="13" y="4" width="1" height="1" fill="#FF5A1F"></rect><rect x="14" y="4" width="1" height="1" fill="#FF5A1F"></rect><rect x="15" y="4" width="1" height="1" fill="#FF5A1F"></rect><rect x="16" y="4" width="1" height="1" fill="#FF5A1F"></rect><rect x="17" y="4" width="1" height="1" fill="#FF5A1F"></rect><rect x="18" y="4" width="1" height="1" fill="#FF5A1F"></rect><rect x="19" y="4" width="1" height="1" fill="#FF5A1F"></rect><rect x="20" y="4" width="1" height="1" fill="#FF5A1F"></rect><rect x="21" y="4" width="1" height="1" fill="#FF5A1F"></rect><rect x="22" y="4" width="1" height="1" fill="#FF5A1F"></rect><rect x="23" y="4" width="1" height="1" fill="#FF5A1F"></rect><rect x="24" y="4" width="1" height="1" fill="#0A0A0A"></rect><rect x="6" y="5" width="1" height="1" fill="#0A0A0A"></rect><rect x="7" y="5" width="1" height="1" fill="#FF5A1F"></rect><rect x="8" y="5" width="1" height="1" fill="#FF5A1F"></rect><rect x="9" y="5" width="1" height="1" fill="#E64A10"></rect><rect x="10" y="5" width="1" height="1" fill="#FF5A1F"></rect><rect x="11" y="5" width="1" height="1" fill="#FF5A1F"></rect><rect x="12" y="5" width="1" height="1" fill="#FF5A1F"></rect><rect x="13" y="5" width="1" height="1" fill="#FF5A1F"></rect><rect x="14" y="5" width="1" height="1" fill="#FF5A1F"></rect><rect x="15" y="5" width="1" height="1" fill="#FF5A1F"></rect><rect x="16" y="5" width="1" height="1" fill="#FF5A1F"></rect><rect x="17" y="5" width="1" height="1" fill="#FF5A1F"></rect><rect x="18" y="5" width="1" height="1" fill="#FF5A1F"></rect><rect x="19" y="5" width="1" height="1" fill="#FF5A1F"></rect><rect x="20" y="5" width="1" height="1" fill="#FF5A1F"></rect><rect x="21" y="5" width="1" height="1" fill="#FF5A1F"></rect><rect x="22" y="5" width="1" height="1" fill="#FF5A1F"></rect><rect x="23" y="5" width="1" height="1" fill="#E64A10"></rect><rect x="24" y="5" width="1" height="1" fill="#FF5A1F"></rect><rect x="25" y="5" width="1" height="1" fill="#0A0A0A"></rect><rect x="5" y="6" width="1" height="1" fill="#0A0A0A"></rect><rect x="6" y="6" width="1" height="1" fill="#FF5A1F"></rect><rect x="7" y="6" width="1" height="1" fill="#FF5A1F"></rect><rect x="8" y="6" width="1" height="1" fill="#FF5A1F"></rect><rect x="9" y="6" width="1" height="1" fill="#FF5A1F"></rect><rect x="10" y="6" width="1" height="1" fill="#FF5A1F"></rect><rect x="11" y="6" width="1" height="1" fill="#FF5A1F"></rect><rect x="12" y="6" width="1" height="1" fill="#B8FF3C"></rect><rect x="13" y="6" width="1" height="1" fill="#B8FF3C"></rect><rect x="14" y="6" width="1" height="1" fill="#B8FF3C"></rect><rect x="15" y="6" width="1" height="1" fill="#B8FF3C"></rect><rect x="16" y="6" width="1" height="1" fill="#B8FF3C"></rect><rect x="17" y="6" width="1" height="1" fill="#B8FF3C"></rect><rect x="18" y="6" width="1" height="1" fill="#B8FF3C"></rect><rect x="19" y="6" width="1" height="1" fill="#B8FF3C"></rect><rect x="20" y="6" width="1" height="1" fill="#FF5A1F"></rect><rect x="21" y="6" width="1" height="1" fill="#FF5A1F"></rect><rect x="22" y="6" width="1" height="1" fill="#FF5A1F"></rect><rect x="23" y="6" width="1" height="1" fill="#FF5A1F"></rect><rect x="24" y="6" width="1" height="1" fill="#FF5A1F"></rect><rect x="25" y="6" width="1" height="1" fill="#FF5A1F"></rect><rect x="26" y="6" width="1" height="1" fill="#0A0A0A"></rect><rect x="4" y="7" width="1" height="1" fill="#0A0A0A"></rect><rect x="5" y="7" width="1" height="1" fill="#FF5A1F"></rect><rect x="6" y="7" width="1" height="1" fill="#FF5A1F"></rect><rect x="7" y="7" width="1" height="1" fill="#FF5A1F"></rect><rect x="8" y="7" width="1" height="1" fill="#FF5A1F"></rect><rect x="9" y="7" width="1" height="1" fill="#FF5A1F"></rect><rect x="10" y="7" width="1" height="1" fill="#FF5A1F"></rect><rect x="11" y="7" width="1" height="1" fill="#B8FF3C"></rect><rect x="12" y="7" width="1" height="1" fill="#B8FF3C"></rect><rect x="13" y="7" width="1" height="1" fill="#8FD11A"></rect><rect x="14" y="7" width="1" height="1" fill="#8FD11A"></rect><rect x="15" y="7" width="1" height="1" fill="#8FD11A"></rect><rect x="16" y="7" width="1" height="1" fill="#8FD11A"></rect><rect x="17" y="7" width="1" height="1" fill="#8FD11A"></rect><rect x="18" y="7" width="1" height="1" fill="#8FD11A"></rect><rect x="19" y="7" width="1" height="1" fill="#B8FF3C"></rect><rect x="20" y="7" width="1" height="1" fill="#B8FF3C"></rect><rect x="21" y="7" width="1" height="1" fill="#FF5A1F"></rect><rect x="22" y="7" width="1" height="1" fill="#FF5A1F"></rect><rect x="23" y="7" width="1" height="1" fill="#FF5A1F"></rect><rect x="24" y="7" width="1" height="1" fill="#FF5A1F"></rect><rect x="25" y="7" width="1" height="1" fill="#FF5A1F"></rect><rect x="26" y="7" width="1" height="1" fill="#FF5A1F"></rect><rect x="27" y="7" width="1" height="1" fill="#0A0A0A"></rect><rect x="4" y="8" width="1" height="1" fill="#0A0A0A"></rect><rect x="5" y="8" width="1" height="1" fill="#FF5A1F"></rect><rect x="6" y="8" width="1" height="1" fill="#FF5A1F"></rect><rect x="7" y="8" width="1" height="1" fill="#FF5A1F"></rect><rect x="8" y="8" width="1" height="1" fill="#FF5A1F"></rect><rect x="9" y="8" width="1" height="1" fill="#FF5A1F"></rect><rect x="10" y="8" width="1" height="1" fill="#FF5A1F"></rect><rect x="11" y="8" width="1" height="1" fill="#B8FF3C"></rect><rect x="12" y="8" width="1" height="1" fill="#B8FF3C"></rect><rect x="13" y="8" width="1" height="1" fill="#8FD11A"></rect><rect x="14" y="8" width="1" height="1" fill="#0A0A0A"></rect><rect x="15" y="8" width="1" height="1" fill="#0A0A0A"></rect><rect x="16" y="8" width="1" height="1" fill="#0A0A0A"></rect><rect x="17" y="8" width="1" height="1" fill="#0A0A0A"></rect><rect x="18" y="8" width="1" height="1" fill="#8FD11A"></rect><rect x="19" y="8" width="1" height="1" fill="#8FD11A"></rect><rect x="20" y="8" width="1" height="1" fill="#B8FF3C"></rect><rect x="21" y="8" width="1" height="1" fill="#B8FF3C"></rect><rect x="22" y="8" width="1" height="1" fill="#FF5A1F"></rect><rect x="23" y="8" width="1" height="1" fill="#FF5A1F"></rect><rect x="24" y="8" width="1" height="1" fill="#FF5A1F"></rect><rect x="25" y="8" width="1" height="1" fill="#FF5A1F"></rect><rect x="26" y="8" width="1" height="1" fill="#FF5A1F"></rect><rect x="27" y="8" width="1" height="1" fill="#0A0A0A"></rect><rect x="4" y="9" width="1" height="1" fill="#0A0A0A"></rect><rect x="5" y="9" width="1" height="1" fill="#FF5A1F"></rect><rect x="6" y="9" width="1" height="1" fill="#FF5A1F"></rect><rect x="7" y="9" width="1" height="1" fill="#FF5A1F"></rect><rect x="8" y="9" width="1" height="1" fill="#FF5A1F"></rect><rect x="9" y="9" width="1" height="1" fill="#FF5A1F"></rect><rect x="10" y="9" width="1" height="1" fill="#FF5A1F"></rect><rect x="11" y="9" width="1" height="1" fill="#B8FF3C"></rect><rect x="12" y="9" width="1" height="1" fill="#B8FF3C"></rect><rect x="13" y="9" width="1" height="1" fill="#8FD11A"></rect><rect x="14" y="9" width="1" height="1" fill="#0A0A0A"></rect><rect x="15" y="9" width="1" height="1" fill="#FFFFFF"></rect><rect x="16" y="9" width="1" height="1" fill="#FFFFFF"></rect><rect x="17" y="9" width="1" height="1" fill="#0A0A0A"></rect><rect x="18" y="9" width="1" height="1" fill="#8FD11A"></rect><rect x="19" y="9" width="1" height="1" fill="#8FD11A"></rect><rect x="20" y="9" width="1" height="1" fill="#B8FF3C"></rect><rect x="21" y="9" width="1" height="1" fill="#B8FF3C"></rect><rect x="22" y="9" width="1" height="1" fill="#FF5A1F"></rect><rect x="23" y="9" width="1" height="1" fill="#FF5A1F"></rect><rect x="24" y="9" width="1" height="1" fill="#FF5A1F"></rect><rect x="25" y="9" width="1" height="1" fill="#FF5A1F"></rect><rect x="26" y="9" width="1" height="1" fill="#FF5A1F"></rect><rect x="27" y="9" width="1" height="1" fill="#0A0A0A"></rect><rect x="4" y="10" width="1" height="1" fill="#0A0A0A"></rect><rect x="5" y="10" width="1" height="1" fill="#FF5A1F"></rect><rect x="6" y="10" width="1" height="1" fill="#FF5A1F"></rect><rect x="7" y="10" width="1" height="1" fill="#FF5A1F"></rect><rect x="8" y="10" width="1" height="1" fill="#FF5A1F"></rect><rect x="9" y="10" width="1" height="1" fill="#FF5A1F"></rect><rect x="10" y="10" width="1" height="1" fill="#FF5A1F"></rect><rect x="11" y="10" width="1" height="1" fill="#B8FF3C"></rect><rect x="12" y="10" width="1" height="1" fill="#B8FF3C"></rect><rect x="13" y="10" width="1" height="1" fill="#8FD11A"></rect><rect x="14" y="10" width="1" height="1" fill="#0A0A0A"></rect><rect x="15" y="10" width="1" height="1" fill="#FFFFFF"></rect><rect x="16" y="10" width="1" height="1" fill="#FFFFFF"></rect><rect x="17" y="10" width="1" height="1" fill="#0A0A0A"></rect><rect x="18" y="10" width="1" height="1" fill="#8FD11A"></rect><rect x="19" y="10" width="1" height="1" fill="#8FD11A"></rect><rect x="20" y="10" width="1" height="1" fill="#B8FF3C"></rect><rect x="21" y="10" width="1" height="1" fill="#B8FF3C"></rect><rect x="22" y="10" width="1" height="1" fill="#FF5A1F"></rect><rect x="23" y="10" width="1" height="1" fill="#FF5A1F"></rect><rect x="24" y="10" width="1" height="1" fill="#FF5A1F"></rect><rect x="25" y="10" width="1" height="1" fill="#FF5A1F"></rect><rect x="26" y="10" width="1" height="1" fill="#FF5A1F"></rect><rect x="27" y="10" width="1" height="1" fill="#0A0A0A"></rect><rect x="4" y="11" width="1" height="1" fill="#0A0A0A"></rect><rect x="5" y="11" width="1" height="1" fill="#FF5A1F"></rect><rect x="6" y="11" width="1" height="1" fill="#FF5A1F"></rect><rect x="7" y="11" width="1" height="1" fill="#FF5A1F"></rect><rect x="8" y="11" width="1" height="1" fill="#FF5A1F"></rect><rect x="9" y="11" width="1" height="1" fill="#FF5A1F"></rect><rect x="10" y="11" width="1" height="1" fill="#FF5A1F"></rect><rect x="11" y="11" width="1" height="1" fill="#B8FF3C"></rect><rect x="12" y="11" width="1" height="1" fill="#B8FF3C"></rect><rect x="13" y="11" width="1" height="1" fill="#8FD11A"></rect><rect x="14" y="11" width="1" height="1" fill="#0A0A0A"></rect><rect x="15" y="11" width="1" height="1" fill="#0A0A0A"></rect><rect x="16" y="11" width="1" height="1" fill="#0A0A0A"></rect><rect x="17" y="11" width="1" height="1" fill="#0A0A0A"></rect><rect x="18" y="11" width="1" height="1" fill="#8FD11A"></rect><rect x="19" y="11" width="1" height="1" fill="#8FD11A"></rect><rect x="20" y="11" width="1" height="1" fill="#B8FF3C"></rect><rect x="21" y="11" width="1" height="1" fill="#B8FF3C"></rect><rect x="22" y="11" width="1" height="1" fill="#FF5A1F"></rect><rect x="23" y="11" width="1" height="1" fill="#FF5A1F"></rect><rect x="24" y="11" width="1" height="1" fill="#FF5A1F"></rect><rect x="25" y="11" width="1" height="1" fill="#FF5A1F"></rect><rect x="26" y="11" width="1" height="1" fill="#FF5A1F"></rect><rect x="27" y="11" width="1" height="1" fill="#0A0A0A"></rect><rect x="4" y="12" width="1" height="1" fill="#0A0A0A"></rect><rect x="5" y="12" width="1" height="1" fill="#FF5A1F"></rect><rect x="6" y="12" width="1" height="1" fill="#FF5A1F"></rect><rect x="7" y="12" width="1" height="1" fill="#FF5A1F"></rect><rect x="8" y="12" width="1" height="1" fill="#FF5A1F"></rect><rect x="9" y="12" width="1" height="1" fill="#FF5A1F"></rect><rect x="10" y="12" width="1" height="1" fill="#FF5A1F"></rect><rect x="11" y="12" width="1" height="1" fill="#B8FF3C"></rect><rect x="12" y="12" width="1" height="1" fill="#B8FF3C"></rect><rect x="13" y="12" width="1" height="1" fill="#8FD11A"></rect><rect x="14" y="12" width="1" height="1" fill="#8FD11A"></rect><rect x="15" y="12" width="1" height="1" fill="#8FD11A"></rect><rect x="16" y="12" width="1" height="1" fill="#8FD11A"></rect><rect x="17" y="12" width="1" height="1" fill="#8FD11A"></rect><rect x="18" y="12" width="1" height="1" fill="#8FD11A"></rect><rect x="19" y="12" width="1" height="1" fill="#B8FF3C"></rect><rect x="20" y="12" width="1" height="1" fill="#B8FF3C"></rect><rect x="21" y="12" width="1" height="1" fill="#FF5A1F"></rect><rect x="22" y="12" width="1" height="1" fill="#FF5A1F"></rect><rect x="23" y="12" width="1" height="1" fill="#FF5A1F"></rect><rect x="24" y="12" width="1" height="1" fill="#FF5A1F"></rect><rect x="25" y="12" width="1" height="1" fill="#FF5A1F"></rect><rect x="26" y="12" width="1" height="1" fill="#FF5A1F"></rect><rect x="27" y="12" width="1" height="1" fill="#0A0A0A"></rect><rect x="4" y="13" width="1" height="1" fill="#0A0A0A"></rect><rect x="5" y="13" width="1" height="1" fill="#FF5A1F"></rect><rect x="6" y="13" width="1" height="1" fill="#FF5A1F"></rect><rect x="7" y="13" width="1" height="1" fill="#FF5A1F"></rect><rect x="8" y="13" width="1" height="1" fill="#FF5A1F"></rect><rect x="9" y="13" width="1" height="1" fill="#FF5A1F"></rect><rect x="10" y="13" width="1" height="1" fill="#FF5A1F"></rect><rect x="11" y="13" width="1" height="1" fill="#B8FF3C"></rect><rect x="12" y="13" width="1" height="1" fill="#B8FF3C"></rect><rect x="13" y="13" width="1" height="1" fill="#B8FF3C"></rect><rect x="14" y="13" width="1" height="1" fill="#B8FF3C"></rect><rect x="15" y="13" width="1" height="1" fill="#B8FF3C"></rect><rect x="16" y="13" width="1" height="1" fill="#B8FF3C"></rect><rect x="17" y="13" width="1" height="1" fill="#B8FF3C"></rect><rect x="18" y="13" width="1" height="1" fill="#B8FF3C"></rect><rect x="19" y="13" width="1" height="1" fill="#B8FF3C"></rect><rect x="20" y="13" width="1" height="1" fill="#B8FF3C"></rect><rect x="21" y="13" width="1" height="1" fill="#FF5A1F"></rect><rect x="22" y="13" width="1" height="1" fill="#FF5A1F"></rect><rect x="23" y="13" width="1" height="1" fill="#FF5A1F"></rect><rect x="24" y="13" width="1" height="1" fill="#FF5A1F"></rect><rect x="25" y="13" width="1" height="1" fill="#FF5A1F"></rect><rect x="26" y="13" width="1" height="1" fill="#FF5A1F"></rect><rect x="27" y="13" width="1" height="1" fill="#0A0A0A"></rect><rect x="4" y="14" width="1" height="1" fill="#0A0A0A"></rect><rect x="5" y="14" width="1" height="1" fill="#FF5A1F"></rect><rect x="6" y="14" width="1" height="1" fill="#FF5A1F"></rect><rect x="7" y="14" width="1" height="1" fill="#FF5A1F"></rect><rect x="8" y="14" width="1" height="1" fill="#FF5A1F"></rect><rect x="9" y="14" width="1" height="1" fill="#FF5A1F"></rect><rect x="10" y="14" width="1" height="1" fill="#FF5A1F"></rect><rect x="11" y="14" width="1" height="1" fill="#FF5A1F"></rect><rect x="12" y="14" width="1" height="1" fill="#FF5A1F"></rect><rect x="13" y="14" width="1" height="1" fill="#FF5A1F"></rect><rect x="14" y="14" width="1" height="1" fill="#FF5A1F"></rect><rect x="15" y="14" width="1" height="1" fill="#FF5A1F"></rect><rect x="16" y="14" width="1" height="1" fill="#FF5A1F"></rect><rect x="17" y="14" width="1" height="1" fill="#FF5A1F"></rect><rect x="18" y="14" width="1" height="1" fill="#FF5A1F"></rect><rect x="19" y="14" width="1" height="1" fill="#FF5A1F"></rect><rect x="20" y="14" width="1" height="1" fill="#FF5A1F"></rect><rect x="21" y="14" width="1" height="1" fill="#FF5A1F"></rect><rect x="22" y="14" width="1" height="1" fill="#FF5A1F"></rect><rect x="23" y="14" width="1" height="1" fill="#FF5A1F"></rect><rect x="24" y="14" width="1" height="1" fill="#FF5A1F"></rect><rect x="25" y="14" width="1" height="1" fill="#FF5A1F"></rect><rect x="26" y="14" width="1" height="1" fill="#FF5A1F"></rect><rect x="27" y="14" width="1" height="1" fill="#0A0A0A"></rect><rect x="4" y="15" width="1" height="1" fill="#0A0A0A"></rect><rect x="5" y="15" width="1" height="1" fill="#FF5A1F"></rect><rect x="6" y="15" width="1" height="1" fill="#FF5A1F"></rect><rect x="7" y="15" width="1" height="1" fill="#FF5A1F"></rect><rect x="8" y="15" width="1" height="1" fill="#FF5A1F"></rect><rect x="9" y="15" width="1" height="1" fill="#F5F1E8"></rect><rect x="10" y="15" width="1" height="1" fill="#F5F1E8"></rect><rect x="11" y="15" width="1" height="1" fill="#F5F1E8"></rect><rect x="12" y="15" width="1" height="1" fill="#F5F1E8"></rect><rect x="13" y="15" width="1" height="1" fill="#F5F1E8"></rect><rect x="14" y="15" width="1" height="1" fill="#F5F1E8"></rect><rect x="15" y="15" width="1" height="1" fill="#F5F1E8"></rect><rect x="16" y="15" width="1" height="1" fill="#F5F1E8"></rect><rect x="17" y="15" width="1" height="1" fill="#F5F1E8"></rect><rect x="18" y="15" width="1" height="1" fill="#F5F1E8"></rect><rect x="19" y="15" width="1" height="1" fill="#F5F1E8"></rect><rect x="20" y="15" width="1" height="1" fill="#F5F1E8"></rect><rect x="21" y="15" width="1" height="1" fill="#F5F1E8"></rect><rect x="22" y="15" width="1" height="1" fill="#F5F1E8"></rect><rect x="23" y="15" width="1" height="1" fill="#FF5A1F"></rect><rect x="24" y="15" width="1" height="1" fill="#FF5A1F"></rect><rect x="25" y="15" width="1" height="1" fill="#FF5A1F"></rect><rect x="26" y="15" width="1" height="1" fill="#FF5A1F"></rect><rect x="27" y="15" width="1" height="1" fill="#0A0A0A"></rect><rect x="3" y="16" width="1" height="1" fill="#0A0A0A"></rect><rect x="4" y="16" width="1" height="1" fill="#FF5A1F"></rect><rect x="5" y="16" width="1" height="1" fill="#FF5A1F"></rect><rect x="6" y="16" width="1" height="1" fill="#FF5A1F"></rect><rect x="7" y="16" width="1" height="1" fill="#FF5A1F"></rect><rect x="8" y="16" width="1" height="1" fill="#F5F1E8"></rect><rect x="9" y="16" width="1" height="1" fill="#F5F1E8"></rect><rect x="10" y="16" width="1" height="1" fill="#0A0A0A"></rect><rect x="11" y="16" width="1" height="1" fill="#F5F1E8"></rect><rect x="12" y="16" width="1" height="1" fill="#0A0A0A"></rect><rect x="13" y="16" width="1" height="1" fill="#F5F1E8"></rect><rect x="14" y="16" width="1" height="1" fill="#0A0A0A"></rect><rect x="15" y="16" width="1" height="1" fill="#F5F1E8"></rect><rect x="16" y="16" width="1" height="1" fill="#0A0A0A"></rect><rect x="17" y="16" width="1" height="1" fill="#F5F1E8"></rect><rect x="18" y="16" width="1" height="1" fill="#0A0A0A"></rect><rect x="19" y="16" width="1" height="1" fill="#F5F1E8"></rect><rect x="20" y="16" width="1" height="1" fill="#0A0A0A"></rect><rect x="21" y="16" width="1" height="1" fill="#F5F1E8"></rect><rect x="22" y="16" width="1" height="1" fill="#0A0A0A"></rect><rect x="23" y="16" width="1" height="1" fill="#F5F1E8"></rect><rect x="24" y="16" width="1" height="1" fill="#FF5A1F"></rect><rect x="25" y="16" width="1" height="1" fill="#FF5A1F"></rect><rect x="26" y="16" width="1" height="1" fill="#FF5A1F"></rect><rect x="27" y="16" width="1" height="1" fill="#FF5A1F"></rect><rect x="28" y="16" width="1" height="1" fill="#0A0A0A"></rect><rect x="3" y="17" width="1" height="1" fill="#0A0A0A"></rect><rect x="4" y="17" width="1" height="1" fill="#FF5A1F"></rect><rect x="5" y="17" width="1" height="1" fill="#FF5A1F"></rect><rect x="6" y="17" width="1" height="1" fill="#FF5A1F"></rect><rect x="7" y="17" width="1" height="1" fill="#FF5A1F"></rect><rect x="8" y="17" width="1" height="1" fill="#F5F1E8"></rect><rect x="9" y="17" width="1" height="1" fill="#F5F1E8"></rect><rect x="10" y="17" width="1" height="1" fill="#F5F1E8"></rect><rect x="11" y="17" width="1" height="1" fill="#F5F1E8"></rect><rect x="12" y="17" width="1" height="1" fill="#F5F1E8"></rect><rect x="13" y="17" width="1" height="1" fill="#F5F1E8"></rect><rect x="14" y="17" width="1" height="1" fill="#F5F1E8"></rect><rect x="15" y="17" width="1" height="1" fill="#F5F1E8"></rect><rect x="16" y="17" width="1" height="1" fill="#F5F1E8"></rect><rect x="17" y="17" width="1" height="1" fill="#F5F1E8"></rect><rect x="18" y="17" width="1" height="1" fill="#F5F1E8"></rect><rect x="19" y="17" width="1" height="1" fill="#F5F1E8"></rect><rect x="20" y="17" width="1" height="1" fill="#F5F1E8"></rect><rect x="21" y="17" width="1" height="1" fill="#F5F1E8"></rect><rect x="22" y="17" width="1" height="1" fill="#F5F1E8"></rect><rect x="23" y="17" width="1" height="1" fill="#F5F1E8"></rect><rect x="24" y="17" width="1" height="1" fill="#FF5A1F"></rect><rect x="25" y="17" width="1" height="1" fill="#FF5A1F"></rect><rect x="26" y="17" width="1" height="1" fill="#FF5A1F"></rect><rect x="27" y="17" width="1" height="1" fill="#FF5A1F"></rect><rect x="28" y="17" width="1" height="1" fill="#0A0A0A"></rect><rect x="3" y="18" width="1" height="1" fill="#0A0A0A"></rect><rect x="4" y="18" width="1" height="1" fill="#FF5A1F"></rect><rect x="5" y="18" width="1" height="1" fill="#FF5A1F"></rect><rect x="6" y="18" width="1" height="1" fill="#FF5A1F"></rect><rect x="7" y="18" width="1" height="1" fill="#FF5A1F"></rect><rect x="8" y="18" width="1" height="1" fill="#F5F1E8"></rect><rect x="9" y="18" width="1" height="1" fill="#F5F1E8"></rect><rect x="10" y="18" width="1" height="1" fill="#0A0A0A"></rect><rect x="11" y="18" width="1" height="1" fill="#F5F1E8"></rect><rect x="12" y="18" width="1" height="1" fill="#F5F1E8"></rect><rect x="13" y="18" width="1" height="1" fill="#0A0A0A"></rect><rect x="14" y="18" width="1" height="1" fill="#F5F1E8"></rect><rect x="15" y="18" width="1" height="1" fill="#F5F1E8"></rect><rect x="16" y="18" width="1" height="1" fill="#0A0A0A"></rect><rect x="17" y="18" width="1" height="1" fill="#F5F1E8"></rect><rect x="18" y="18" width="1" height="1" fill="#F5F1E8"></rect><rect x="19" y="18" width="1" height="1" fill="#0A0A0A"></rect><rect x="20" y="18" width="1" height="1" fill="#F5F1E8"></rect><rect x="21" y="18" width="1" height="1" fill="#F5F1E8"></rect><rect x="22" y="18" width="1" height="1" fill="#0A0A0A"></rect><rect x="23" y="18" width="1" height="1" fill="#F5F1E8"></rect><rect x="24" y="18" width="1" height="1" fill="#FF5A1F"></rect><rect x="25" y="18" width="1" height="1" fill="#FF5A1F"></rect><rect x="26" y="18" width="1" height="1" fill="#FF5A1F"></rect><rect x="27" y="18" width="1" height="1" fill="#FF5A1F"></rect><rect x="28" y="18" width="1" height="1" fill="#0A0A0A"></rect><rect x="3" y="19" width="1" height="1" fill="#0A0A0A"></rect><rect x="4" y="19" width="1" height="1" fill="#FF5A1F"></rect><rect x="5" y="19" width="1" height="1" fill="#FF5A1F"></rect><rect x="6" y="19" width="1" height="1" fill="#FF5A1F"></rect><rect x="7" y="19" width="1" height="1" fill="#FF5A1F"></rect><rect x="8" y="19" width="1" height="1" fill="#FF5A1F"></rect><rect x="9" y="19" width="1" height="1" fill="#FF5A1F"></rect><rect x="10" y="19" width="1" height="1" fill="#FF5A1F"></rect><rect x="11" y="19" width="1" height="1" fill="#FF5A1F"></rect><rect x="12" y="19" width="1" height="1" fill="#FF5A1F"></rect><rect x="13" y="19" width="1" height="1" fill="#FF5A1F"></rect><rect x="14" y="19" width="1" height="1" fill="#FF5A1F"></rect><rect x="15" y="19" width="1" height="1" fill="#FF5A1F"></rect><rect x="16" y="19" width="1" height="1" fill="#FF5A1F"></rect><rect x="17" y="19" width="1" height="1" fill="#FF5A1F"></rect><rect x="18" y="19" width="1" height="1" fill="#FF5A1F"></rect><rect x="19" y="19" width="1" height="1" fill="#FF5A1F"></rect><rect x="20" y="19" width="1" height="1" fill="#FF5A1F"></rect><rect x="21" y="19" width="1" height="1" fill="#FF5A1F"></rect><rect x="22" y="19" width="1" height="1" fill="#FF5A1F"></rect><rect x="23" y="19" width="1" height="1" fill="#FF5A1F"></rect><rect x="24" y="19" width="1" height="1" fill="#FF5A1F"></rect><rect x="25" y="19" width="1" height="1" fill="#FF5A1F"></rect><rect x="26" y="19" width="1" height="1" fill="#FF5A1F"></rect><rect x="27" y="19" width="1" height="1" fill="#FF5A1F"></rect><rect x="28" y="19" width="1" height="1" fill="#0A0A0A"></rect><rect x="3" y="20" width="1" height="1" fill="#0A0A0A"></rect><rect x="4" y="20" width="1" height="1" fill="#FF5A1F"></rect><rect x="5" y="20" width="1" height="1" fill="#FF5A1F"></rect><rect x="6" y="20" width="1" height="1" fill="#FF5A1F"></rect><rect x="7" y="20" width="1" height="1" fill="#FF5A1F"></rect><rect x="8" y="20" width="1" height="1" fill="#FF5A1F"></rect><rect x="9" y="20" width="1" height="1" fill="#FF5A1F"></rect><rect x="10" y="20" width="1" height="1" fill="#FF5A1F"></rect><rect x="11" y="20" width="1" height="1" fill="#FF5A1F"></rect><rect x="12" y="20" width="1" height="1" fill="#FF5A1F"></rect><rect x="13" y="20" width="1" height="1" fill="#FF5A1F"></rect><rect x="14" y="20" width="1" height="1" fill="#FF5A1F"></rect><rect x="15" y="20" width="1" height="1" fill="#FF5A1F"></rect><rect x="16" y="20" width="1" height="1" fill="#FF5A1F"></rect><rect x="17" y="20" width="1" height="1" fill="#FF5A1F"></rect><rect x="18" y="20" width="1" height="1" fill="#FF5A1F"></rect><rect x="19" y="20" width="1" height="1" fill="#FF5A1F"></rect><rect x="20" y="20" width="1" height="1" fill="#FF5A1F"></rect><rect x="21" y="20" width="1" height="1" fill="#FF5A1F"></rect><rect x="22" y="20" width="1" height="1" fill="#FF5A1F"></rect><rect x="23" y="20" width="1" height="1" fill="#FF5A1F"></rect><rect x="24" y="20" width="1" height="1" fill="#FF5A1F"></rect><rect x="25" y="20" width="1" height="1" fill="#FF5A1F"></rect><rect x="26" y="20" width="1" height="1" fill="#FF5A1F"></rect><rect x="27" y="20" width="1" height="1" fill="#FF5A1F"></rect><rect x="28" y="20" width="1" height="1" fill="#0A0A0A"></rect><rect x="3" y="21" width="1" height="1" fill="#0A0A0A"></rect><rect x="4" y="21" width="1" height="1" fill="#FF5A1F"></rect><rect x="5" y="21" width="1" height="1" fill="#FF5A1F"></rect><rect x="6" y="21" width="1" height="1" fill="#FF5A1F"></rect><rect x="7" y="21" width="1" height="1" fill="#E64A10"></rect><rect x="8" y="21" width="1" height="1" fill="#FF5A1F"></rect><rect x="9" y="21" width="1" height="1" fill="#FF5A1F"></rect><rect x="10" y="21" width="1" height="1" fill="#FF5A1F"></rect><rect x="11" y="21" width="1" height="1" fill="#FF5A1F"></rect><rect x="12" y="21" width="1" height="1" fill="#FF5A1F"></rect><rect x="13" y="21" width="1" height="1" fill="#FF5A1F"></rect><rect x="14" y="21" width="1" height="1" fill="#FF5A1F"></rect><rect x="15" y="21" width="1" height="1" fill="#FF5A1F"></rect><rect x="16" y="21" width="1" height="1" fill="#FF5A1F"></rect><rect x="17" y="21" width="1" height="1" fill="#FF5A1F"></rect><rect x="18" y="21" width="1" height="1" fill="#FF5A1F"></rect><rect x="19" y="21" width="1" height="1" fill="#FF5A1F"></rect><rect x="20" y="21" width="1" height="1" fill="#FF5A1F"></rect><rect x="21" y="21" width="1" height="1" fill="#FF5A1F"></rect><rect x="22" y="21" width="1" height="1" fill="#FF5A1F"></rect><rect x="23" y="21" width="1" height="1" fill="#FF5A1F"></rect><rect x="24" y="21" width="1" height="1" fill="#FF5A1F"></rect><rect x="25" y="21" width="1" height="1" fill="#E64A10"></rect><rect x="26" y="21" width="1" height="1" fill="#FF5A1F"></rect><rect x="27" y="21" width="1" height="1" fill="#FF5A1F"></rect><rect x="28" y="21" width="1" height="1" fill="#0A0A0A"></rect><rect x="4" y="22" width="1" height="1" fill="#0A0A0A"></rect><rect x="5" y="22" width="1" height="1" fill="#FF5A1F"></rect><rect x="6" y="22" width="1" height="1" fill="#FF5A1F"></rect><rect x="7" y="22" width="1" height="1" fill="#FF5A1F"></rect><rect x="8" y="22" width="1" height="1" fill="#FF5A1F"></rect><rect x="9" y="22" width="1" height="1" fill="#FF5A1F"></rect><rect x="10" y="22" width="1" height="1" fill="#FF5A1F"></rect><rect x="11" y="22" width="1" height="1" fill="#FF5A1F"></rect><rect x="12" y="22" width="1" height="1" fill="#FF5A1F"></rect><rect x="13" y="22" width="1" height="1" fill="#FF5A1F"></rect><rect x="14" y="22" width="1" height="1" fill="#FF5A1F"></rect><rect x="15" y="22" width="1" height="1" fill="#FF5A1F"></rect><rect x="16" y="22" width="1" height="1" fill="#FF5A1F"></rect><rect x="17" y="22" width="1" height="1" fill="#FF5A1F"></rect><rect x="18" y="22" width="1" height="1" fill="#FF5A1F"></rect><rect x="19" y="22" width="1" height="1" fill="#FF5A1F"></rect><rect x="20" y="22" width="1" height="1" fill="#FF5A1F"></rect><rect x="21" y="22" width="1" height="1" fill="#FF5A1F"></rect><rect x="22" y="22" width="1" height="1" fill="#FF5A1F"></rect><rect x="23" y="22" width="1" height="1" fill="#FF5A1F"></rect><rect x="24" y="22" width="1" height="1" fill="#FF5A1F"></rect><rect x="25" y="22" width="1" height="1" fill="#FF5A1F"></rect><rect x="26" y="22" width="1" height="1" fill="#FF5A1F"></rect><rect x="27" y="22" width="1" height="1" fill="#0A0A0A"></rect><rect x="4" y="23" width="1" height="1" fill="#0A0A0A"></rect><rect x="5" y="23" width="1" height="1" fill="#FF5A1F"></rect><rect x="6" y="23" width="1" height="1" fill="#FF5A1F"></rect><rect x="7" y="23" width="1" height="1" fill="#FF5A1F"></rect><rect x="8" y="23" width="1" height="1" fill="#FF5A1F"></rect><rect x="9" y="23" width="1" height="1" fill="#FF5A1F"></rect><rect x="10" y="23" width="1" height="1" fill="#FF5A1F"></rect><rect x="11" y="23" width="1" height="1" fill="#FF5A1F"></rect><rect x="12" y="23" width="1" height="1" fill="#FF5A1F"></rect><rect x="13" y="23" width="1" height="1" fill="#FF5A1F"></rect><rect x="14" y="23" width="1" height="1" fill="#FF5A1F"></rect><rect x="15" y="23" width="1" height="1" fill="#FF5A1F"></rect><rect x="16" y="23" width="1" height="1" fill="#FF5A1F"></rect><rect x="17" y="23" width="1" height="1" fill="#FF5A1F"></rect><rect x="18" y="23" width="1" height="1" fill="#FF5A1F"></rect><rect x="19" y="23" width="1" height="1" fill="#FF5A1F"></rect><rect x="20" y="23" width="1" height="1" fill="#FF5A1F"></rect><rect x="21" y="23" width="1" height="1" fill="#FF5A1F"></rect><rect x="22" y="23" width="1" height="1" fill="#FF5A1F"></rect><rect x="23" y="23" width="1" height="1" fill="#FF5A1F"></rect><rect x="24" y="23" width="1" height="1" fill="#FF5A1F"></rect><rect x="25" y="23" width="1" height="1" fill="#FF5A1F"></rect><rect x="26" y="23" width="1" height="1" fill="#FF5A1F"></rect><rect x="27" y="23" width="1" height="1" fill="#0A0A0A"></rect><rect x="5" y="24" width="1" height="1" fill="#0A0A0A"></rect><rect x="6" y="24" width="1" height="1" fill="#FF5A1F"></rect><rect x="7" y="24" width="1" height="1" fill="#FF5A1F"></rect><rect x="8" y="24" width="1" height="1" fill="#FF5A1F"></rect><rect x="9" y="24" width="1" height="1" fill="#E64A10"></rect><rect x="10" y="24" width="1" height="1" fill="#FF5A1F"></rect><rect x="11" y="24" width="1" height="1" fill="#FF5A1F"></rect><rect x="12" y="24" width="1" height="1" fill="#FF5A1F"></rect><rect x="13" y="24" width="1" height="1" fill="#FF5A1F"></rect><rect x="14" y="24" width="1" height="1" fill="#FF5A1F"></rect><rect x="15" y="24" width="1" height="1" fill="#FF5A1F"></rect><rect x="16" y="24" width="1" height="1" fill="#FF5A1F"></rect><rect x="17" y="24" width="1" height="1" fill="#FF5A1F"></rect><rect x="18" y="24" width="1" height="1" fill="#FF5A1F"></rect><rect x="19" y="24" width="1" height="1" fill="#FF5A1F"></rect><rect x="20" y="24" width="1" height="1" fill="#FF5A1F"></rect><rect x="21" y="24" width="1" height="1" fill="#FF5A1F"></rect><rect x="22" y="24" width="1" height="1" fill="#FF5A1F"></rect><rect x="23" y="24" width="1" height="1" fill="#E64A10"></rect><rect x="24" y="24" width="1" height="1" fill="#FF5A1F"></rect><rect x="25" y="24" width="1" height="1" fill="#FF5A1F"></rect><rect x="26" y="24" width="1" height="1" fill="#0A0A0A"></rect><rect x="6" y="25" width="1" height="1" fill="#0A0A0A"></rect><rect x="7" y="25" width="1" height="1" fill="#FF5A1F"></rect><rect x="8" y="25" width="1" height="1" fill="#FF5A1F"></rect><rect x="9" y="25" width="1" height="1" fill="#FF5A1F"></rect><rect x="10" y="25" width="1" height="1" fill="#FF5A1F"></rect><rect x="11" y="25" width="1" height="1" fill="#FF5A1F"></rect><rect x="12" y="25" width="1" height="1" fill="#FF5A1F"></rect><rect x="13" y="25" width="1" height="1" fill="#FF5A1F"></rect><rect x="14" y="25" width="1" height="1" fill="#FF5A1F"></rect><rect x="15" y="25" width="1" height="1" fill="#FF5A1F"></rect><rect x="16" y="25" width="1" height="1" fill="#FF5A1F"></rect><rect x="17" y="25" width="1" height="1" fill="#FF5A1F"></rect><rect x="18" y="25" width="1" height="1" fill="#FF5A1F"></rect><rect x="19" y="25" width="1" height="1" fill="#FF5A1F"></rect><rect x="20" y="25" width="1" height="1" fill="#FF5A1F"></rect><rect x="21" y="25" width="1" height="1" fill="#FF5A1F"></rect><rect x="22" y="25" width="1" height="1" fill="#FF5A1F"></rect><rect x="23" y="25" width="1" height="1" fill="#FF5A1F"></rect><rect x="24" y="25" width="1" height="1" fill="#0A0A0A"></rect><rect x="7" y="26" width="1" height="1" fill="#0A0A0A"></rect><rect x="8" y="26" width="1" height="1" fill="#FF5A1F"></rect><rect x="9" y="26" width="1" height="1" fill="#FF5A1F"></rect><rect x="10" y="26" width="1" height="1" fill="#FF5A1F"></rect><rect x="11" y="26" width="1" height="1" fill="#FF5A1F"></rect><rect x="12" y="26" width="1" height="1" fill="#FF5A1F"></rect><rect x="13" y="26" width="1" height="1" fill="#FF5A1F"></rect><rect x="14" y="26" width="1" height="1" fill="#FF5A1F"></rect><rect x="15" y="26" width="1" height="1" fill="#FF5A1F"></rect><rect x="16" y="26" width="1" height="1" fill="#FF5A1F"></rect><rect x="17" y="26" width="1" height="1" fill="#FF5A1F"></rect><rect x="18" y="26" width="1" height="1" fill="#FF5A1F"></rect><rect x="19" y="26" width="1" height="1" fill="#FF5A1F"></rect><rect x="20" y="26" width="1" height="1" fill="#FF5A1F"></rect><rect x="21" y="26" width="1" height="1" fill="#FF5A1F"></rect><rect x="22" y="26" width="1" height="1" fill="#0A0A0A"></rect><rect x="8" y="27" width="1" height="1" fill="#0A0A0A"></rect><rect x="9" y="27" width="1" height="1" fill="#0A0A0A"></rect><rect x="10" y="27" width="1" height="1" fill="#0A0A0A"></rect><rect x="11" y="27" width="1" height="1" fill="#FF5A1F"></rect><rect x="12" y="27" width="1" height="1" fill="#FF5A1F"></rect><rect x="13" y="27" width="1" height="1" fill="#FF5A1F"></rect><rect x="14" y="27" width="1" height="1" fill="#FF5A1F"></rect><rect x="15" y="27" width="1" height="1" fill="#FF5A1F"></rect><rect x="16" y="27" width="1" height="1" fill="#FF5A1F"></rect><rect x="17" y="27" width="1" height="1" fill="#FF5A1F"></rect><rect x="18" y="27" width="1" height="1" fill="#FF5A1F"></rect><rect x="19" y="27" width="1" height="1" fill="#0A0A0A"></rect><rect x="20" y="27" width="1" height="1" fill="#0A0A0A"></rect><rect x="21" y="27" width="1" height="1" fill="#0A0A0A"></rect><rect x="10" y="28" width="1" height="1" fill="#0A0A0A"></rect><rect x="11" y="28" width="1" height="1" fill="#0A0A0A"></rect><rect x="12" y="28" width="1" height="1" fill="#0A0A0A"></rect><rect x="13" y="28" width="1" height="1" fill="#0A0A0A"></rect><rect x="14" y="28" width="1" height="1" fill="#0A0A0A"></rect><rect x="15" y="28" width="1" height="1" fill="#0A0A0A"></rect><rect x="16" y="28" width="1" height="1" fill="#0A0A0A"></rect><rect x="17" y="28" width="1" height="1" fill="#0A0A0A"></rect><rect x="18" y="28" width="1" height="1" fill="#0A0A0A"></rect><rect x="19" y="28" width="1" height="1" fill="#0A0A0A"></rect>
    </g>
  </g>
</svg>